<?xml version="1.0" encoding="UTF-8"?>
<svg
  version="1.1"
  xmlns="http://www.w3.org/2000/svg"
  width="103"
  height="35"
  viewBox="0 0 500 500"
>
<path d="M0 0 C2.0443911 2.2363527 3.43564441 4.37591966 5 7 C5.33 3.7 5.66 0.4 6 -3 C12.6 -3 19.2 -3 26 -3 C26.66 10.2 27.32 23.4 28 37 C34.48187426 37.7166641 34.48187426 37.7166641 36.90551758 35.51660156 C38.45233056 31.95993233 38.47993299 28.54876613 38.51171875 24.734375 C38.52966995 23.94097717 38.54762115 23.14757935 38.56611633 22.33013916 C38.62016926 19.80347969 38.65409812 17.27700856 38.6875 14.75 C38.7206776 13.03382799 38.75516767 11.31768081 38.79101562 9.6015625 C38.87589255 5.40117768 38.94272721 1.20084823 39 -3 C42.14581423 -3.02888514 45.29159469 -3.04675923 48.4375 -3.0625 C49.33533203 -3.07087891 50.23316406 -3.07925781 51.15820312 -3.08789062 C52.01220703 -3.09111328 52.86621094 -3.09433594 53.74609375 -3.09765625 C54.53685303 -3.10289307 55.3276123 -3.10812988 56.14233398 -3.11352539 C58 -3 58 -3 59 -2 C59.13852657 0.61041382 59.21320899 3.19235233 59.23828125 5.8046875 C59.246353 6.59843781 59.25442474 7.39218811 59.26274109 8.20999146 C59.27660944 9.89973758 59.28731921 11.58951205 59.29516602 13.27929688 C59.31219947 15.82999682 59.35603457 18.37933852 59.40039062 20.9296875 C59.59132058 40.713893 59.59132058 40.713893 53.27856445 47.98193359 C46.13474709 54.8103809 37.63616872 54.44234811 28.3671875 54.23828125 C22.23280247 53.9741149 17.4872429 53.36148343 12.9140625 49.01953125 C11.17095854 47.07317999 9.55175732 45.1006104 8 43 C7.01 44.0828125 7.01 44.0828125 6 45.1875 C-0.76757231 51.95507231 -7.26648515 54.21172098 -16.6875 54.25 C-26.25388014 54.24460745 -32.92353504 52.71356932 -40 46 C-40.33 48.31 -40.66 50.62 -41 53 C-49.0492212 53.06943237 -57.09831782 53.12277646 -65.14776421 53.15543652 C-68.88523796 53.17110972 -72.62250723 53.19237761 -76.35986328 53.22631836 C-79.9649164 53.25885367 -83.56977252 53.27684054 -87.17496109 53.28463173 C-88.55213651 53.29018581 -89.92930085 53.30103135 -91.30639267 53.31719017 C-93.23133631 53.33888435 -95.15647712 53.34022471 -97.08154297 53.34057617 C-98.17852509 53.34723801 -99.2755072 53.35389984 -100.4057312 53.36076355 C-101.2618399 53.24171158 -102.11794861 53.12265961 -103 53 C-105.4658719 49.30119215 -105.39803736 46.71297243 -105.65625 42.375 C-105.86422231 39.73805704 -105.86422231 39.73805704 -108 37 C-109.96361864 36.42251197 -109.96361864 36.42251197 -112.125 36.3125 C-113.40375 36.209375 -114.6825 36.10625 -116 36 C-115.83757812 36.53238281 -115.67515625 37.06476563 -115.5078125 37.61328125 C-114.89004806 40.51677413 -114.86777178 43.22031678 -114.875 46.1875 C-114.87113281 47.78658203 -114.87113281 47.78658203 -114.8671875 49.41796875 C-115 52 -115 52 -116 53 C-117.4887186 53.08669432 -118.981445 53.10703494 -120.47265625 53.09765625 C-121.37177734 53.09443359 -122.27089844 53.09121094 -123.19726562 53.08789062 C-124.61555664 53.07532227 -124.61555664 53.07532227 -126.0625 53.0625 C-127.01189453 53.05798828 -127.96128906 53.05347656 -128.93945312 53.04882812 C-131.29303065 53.0370011 -133.64648477 53.02052025 -136 53 C-136.02497634 47.25659491 -136.04298902 41.5132224 -136.05493164 35.76977539 C-136.05991766 33.82152759 -136.06670888 31.87328345 -136.07543945 29.92504883 C-136.18741576 4.2693018 -136.18741576 4.2693018 -135 -2 C-132.01956417 -3.49021792 -128.95440771 -3.20401734 -125.68359375 -3.23828125 C-124.95310318 -3.246353 -124.22261261 -3.25442474 -123.46998596 -3.26274109 C-121.919061 -3.27658559 -120.36810551 -3.28730612 -118.81713867 -3.29516602 C-116.47058051 -3.31225903 -114.12547647 -3.35612309 -111.77929688 -3.40039062 C-101.09137238 -3.51129127 -93.18508453 -2.39297958 -85 5 C-84.67 2.36 -84.34 -0.28 -84 -3 C-70.14 -3 -56.28 -3 -42 -3 C-41.01 0.465 -41.01 0.465 -40 4 C-39.55269531 3.59007812 -39.10539062 3.18015625 -38.64453125 2.7578125 C-28.28231496 -6.47759562 -11.85010163 -8.17415174 0 0 Z M-21 10 C-21.66 11.32 -22.32 12.64 -23 14 C-19.08938204 17.50367548 -14.62897275 18.27028294 -9.6640625 19.37304688 C-5.05831299 20.48269822 -1.83503036 22.26463973 2 25 C2.99 25.33 3.98 25.66 5 26 C5.33 26.66 5.66 27.32 6 28 C6 24.04 6 20.08 6 16 C0.06 16 -5.88 16 -12 16 C-12.33 14.68 -12.66 13.36 -13 12 C-14.89755144 9.65026182 -14.89755144 9.65026182 -18.125 9.875 C-19.07375 9.91625 -20.0225 9.9575 -21 10 Z M-115 12 C-115.33 15.3 -115.66 18.6 -116 22 C-111.96395176 23.00901206 -109.95682367 23.03221487 -106 22 C-103.64985842 19.162422 -103.64985842 19.162422 -104.3125 15.875 C-104.70644321 13.11913578 -104.70644321 13.11913578 -106 12 C-109.00331018 11.85806663 -111.99217134 11.95763622 -115 12 Z M-64 12 C-64 13.98 -64 15.96 -64 18 C-57.4 18 -50.8 18 -44 18 C-44 22.29 -44 26.58 -44 31 C-50.6 31 -57.2 31 -64 31 C-64.33 32.98 -64.66 34.96 -65 37 C-63.98363023 38.23921211 -63.98363023 38.23921211 -61.86694336 38.11352539 C-60.49227905 38.10567017 -60.49227905 38.10567017 -59.08984375 38.09765625 C-58.10048828 38.09443359 -57.11113281 38.09121094 -56.09179688 38.08789062 C-54.53041992 38.07532227 -54.53041992 38.07532227 -52.9375 38.0625 C-51.89271484 38.05798828 -50.84792969 38.05347656 -49.77148438 38.04882812 C-47.1809334 38.03699913 -44.59049441 38.02051689 -42 38 C-42.33 36.68 -42.66 35.36 -43 34 C-36.73 34 -30.46 34 -24 34 C-23.505 35.98 -23.505 35.98 -23 38 C-21.11499729 40.31563087 -21.11499729 40.31563087 -18 40.25 C-14.88500271 40.31563087 -14.88500271 40.31563087 -13 38 C-12.68758887 35.46915186 -12.68758887 35.46915186 -14 33 C-16.72091002 31.71655188 -19.13581187 30.84240827 -22 30 C-35.98075701 25.70100753 -35.98075701 25.70100753 -39 22 C-40.485 17.05 -40.485 17.05 -42 12 C-49.26 12 -56.52 12 -64 12 Z M-86 23 C-88.97 25.475 -88.97 25.475 -92 28 C-90.02 31.3 -88.04 34.6 -86 38 C-85.34 37.67 -84.68 37.34 -84 37 C-84 32.71 -84 28.42 -84 24 C-84.66 23.67 -85.32 23.34 -86 23 Z " fill="#000000" transform="translate(150,226)"/>
<path d="M0 0 C1.42450971 0.02198144 2.84892309 0.05082472 4.27319336 0.08496094 C5.0296666 0.10145691 5.78613983 0.11795288 6.5655365 0.13494873 C8.17380635 0.17253957 9.78200912 0.21309689 11.39013672 0.25634766 C13.82829098 0.3184509 16.26624752 0.36029938 18.70483398 0.40136719 C20.26931907 0.44047355 21.83377419 0.48080117 23.39819336 0.52246094 C24.1193483 0.53198792 24.84050323 0.54151489 25.58351135 0.55133057 C31.79867703 0.75664807 37.48411501 1.99049559 42.23803711 6.25683594 C44.55314963 10.42403847 45.49378766 14.40746552 44.28881836 19.03417969 C42.96764106 22.34061812 41.37017561 24.66571341 38.80053711 27.06933594 C39.54110352 27.68421875 39.54110352 27.68421875 40.29663086 28.31152344 C40.93729492 28.85035156 41.57795898 29.38917969 42.23803711 29.94433594 C43.19516602 30.74484375 43.19516602 30.74484375 44.17163086 31.56152344 C46.20562479 33.44430919 46.74952406 34.51505952 47.00366211 37.27636719 C47.16323902 46.14618371 47.16323902 46.14618371 43.80053711 50.06933594 C36.01135402 57.68149214 28.41162588 57.35599091 18.08569336 57.26464844 C16.87481552 57.26181854 15.66393768 57.25898865 14.41636658 57.256073 C10.56515443 57.24491623 6.71417847 57.21981949 2.86303711 57.19433594 C0.24520194 57.18430034 -2.3726369 57.1751755 -4.99047852 57.16699219 C-11.39355331 57.14499161 -17.79649122 57.1115587 -24.19946289 57.06933594 C-25.18946289 52.61433594 -25.18946289 52.61433594 -26.19946289 48.06933594 C-30.81946289 48.39933594 -35.43946289 48.72933594 -40.19946289 49.06933594 C-41.18946289 51.70933594 -42.17946289 54.34933594 -43.19946289 57.06933594 C-50.48367837 57.09246509 -57.76788599 57.11025395 -65.0521307 57.12114811 C-68.43418102 57.12637569 -71.81620629 57.13347105 -75.19824219 57.14477539 C-79.08276066 57.1576786 -82.96726886 57.16256518 -86.85180664 57.16699219 C-88.071577 57.17215347 -89.29134735 57.17731476 -90.54808044 57.18263245 C-92.22971031 57.18274574 -92.22971031 57.18274574 -93.9453125 57.18286133 C-94.93792587 57.18508194 -95.93053925 57.18730255 -96.95323181 57.18959045 C-99.19946289 57.06933594 -99.19946289 57.06933594 -100.19946289 56.06933594 C-100.30604086 53.06007567 -100.33935997 50.07907703 -100.32446289 47.06933594 C-100.3225293 46.12558105 -100.3205957 45.18182617 -100.31860352 44.20947266 C-100.23665207 29.82471667 -99.68735849 15.44483128 -99.19946289 1.06933594 C-92.92946289 1.06933594 -86.65946289 1.06933594 -80.19946289 1.06933594 C-79.86946289 13.93933594 -79.53946289 26.80933594 -79.19946289 40.06933594 C-75.88951576 41.7243095 -72.20823289 41.17017929 -68.57446289 41.13183594 C-67.77266602 41.12732422 -66.97086914 41.1228125 -66.14477539 41.11816406 C-64.16297283 41.10636762 -62.18120856 41.08843199 -60.19946289 41.06933594 C-56.59573062 32.73104506 -54.00418014 24.14278616 -51.44946289 15.44433594 C-51.03453101 14.04446802 -50.61916934 12.64472743 -50.20336914 11.24511719 C-49.19631676 7.85484126 -48.19810095 4.46214473 -47.19946289 1.06933594 C-38.28946289 1.06933594 -29.37946289 1.06933594 -20.19946289 1.06933594 C-15.70171177 11.18927597 -15.70171177 11.18927597 -14.16430664 16.53808594 C-13.82979492 17.68664062 -13.4952832 18.83519531 -13.15063477 20.01855469 C-12.81612305 21.1903125 -12.48161133 22.36207031 -12.13696289 23.56933594 C-11.46001719 25.91350218 -10.78166007 28.25726134 -10.10180664 30.60058594 C-9.80781982 31.62732422 -9.51383301 32.6540625 -9.2109375 33.71191406 C-7.96086025 37.86133775 -6.58869456 41.96476329 -5.19946289 46.06933594 C-5.18915543 45.50779312 -5.17884796 44.94625031 -5.16822815 44.36769104 C-5.06038604 38.54440128 -4.94577082 32.7212733 -4.82714844 26.89819336 C-4.78372782 24.72244641 -4.74205818 22.5466638 -4.70214844 20.37084961 C-4.64461787 17.25070426 -4.58087467 14.13073961 -4.51586914 11.01074219 C-4.49915665 10.0315834 -4.48244415 9.05242462 -4.46522522 8.04359436 C-4.44528 7.14273605 -4.42533478 6.24187775 -4.40478516 5.3137207 C-4.38924088 4.51652115 -4.37369659 3.71932159 -4.35768127 2.89796448 C-4.07743714 -0.34099177 -3.33229449 0.07221455 0 0 Z M14.80053711 15.06933594 C14.80053711 17.37933594 14.80053711 19.68933594 14.80053711 22.06933594 C19.57816349 23.0862064 19.57816349 23.0862064 24.23803711 22.13183594 C24.75366211 21.78121094 25.26928711 21.43058594 25.80053711 21.06933594 C25.84325811 19.40321689 25.84117543 17.73550709 25.80053711 16.06933594 C24.76647038 14.80984545 24.76647038 14.80984545 22.51538086 14.97167969 C21.59885742 14.98328125 20.68233398 14.99488281 19.73803711 15.00683594 C18.81893555 15.01585937 17.89983398 15.02488281 16.95288086 15.03417969 C16.24260742 15.04578125 15.53233398 15.05738281 14.80053711 15.06933594 Z M-34.19946289 19.06933594 C-35.18946289 24.01933594 -36.17946289 28.96933594 -37.19946289 34.06933594 C-34.55946289 34.06933594 -31.91946289 34.06933594 -29.19946289 34.06933594 C-29.64743629 31.75480671 -30.10812751 29.44273555 -30.57446289 27.13183594 C-30.82969727 25.8440625 -31.08493164 24.55628906 -31.34790039 23.22949219 C-31.62891602 22.18664062 -31.90993164 21.14378906 -32.19946289 20.06933594 C-32.85946289 19.73933594 -33.51946289 19.40933594 -34.19946289 19.06933594 Z M14.80053711 35.06933594 C14.63387044 38.56933594 14.63387044 38.56933594 14.80053711 42.06933594 C16.67697472 43.94577355 19.29859411 43.2491858 21.79272461 43.29980469 C24.11728039 43.18764931 24.11728039 43.18764931 26.80053711 41.06933594 C27.30053711 38.56933594 27.30053711 38.56933594 26.80053711 36.06933594 C23.79817966 34.0677643 17.88989936 31.97997369 14.80053711 35.06933594 Z " fill="#000000" transform="translate(441.199462890625,221.9306640625)"/>
<path d="M0 0 C7.59 0 15.18 0 23 0 C26.36973764 7.86272117 26.36973764 7.86272117 27.5703125 11.5859375 C27.82683594 12.37097656 28.08335937 13.15601563 28.34765625 13.96484375 C28.60417969 14.76019531 28.86070312 15.55554688 29.125 16.375 C29.64568992 17.98786877 30.16898653 19.59989913 30.6953125 21.2109375 C30.92234863 21.91524902 31.14938477 22.61956055 31.38330078 23.34521484 C31.87418952 25.01274222 31.87418952 25.01274222 33 26 C35.97 17.42 38.94 8.84 42 0 C49.59 0 57.18 0 65 0 C65.495 9.405 65.495 9.405 66 19 C66.66 12.73 67.32 6.46 68 0 C82.19 0 96.38 0 111 0 C111 4.62 111 9.24 111 14 C110 15 110 15 107.86694336 15.11352539 C106.95050049 15.10828857 106.03405762 15.10305176 105.08984375 15.09765625 C104.10048828 15.09443359 103.11113281 15.09121094 102.09179688 15.08789062 C101.05087891 15.07951172 100.00996094 15.07113281 98.9375 15.0625 C97.89271484 15.05798828 96.84792969 15.05347656 95.77148438 15.04882812 C93.1809334 15.03699913 90.59049441 15.02051689 88 15 C88 16.65 88 18.3 88 20 C94.6 20.33 101.2 20.66 108 21 C108 25.29 108 29.58 108 34 C101.07 34 94.14 34 87 34 C87.495 36.97 87.495 36.97 88 40 C95.59 40.33 103.18 40.66 111 41 C111 45.95 111 50.9 111 56 C104.8944529 56.02464513 98.78893449 56.04283371 92.68334961 56.05493164 C90.60456844 56.05997288 88.52579084 56.06680574 86.44702148 56.07543945 C83.46597414 56.08751422 80.48497351 56.09323024 77.50390625 56.09765625 C76.10078941 56.10539818 76.10078941 56.10539818 74.66932678 56.11329651 C73.80850998 56.11337204 72.94769318 56.11344757 72.06079102 56.11352539 C71.29912125 56.115746 70.53745148 56.11796661 69.75270081 56.12025452 C68 56 68 56 67 55 C66.76636119 53.15108054 66.58696365 51.29511969 66.4375 49.4375 C66.35371094 48.42558594 66.26992188 47.41367187 66.18359375 46.37109375 C66.12300781 45.58863281 66.06242187 44.80617188 66 44 C66.01160156 44.78246094 66.02320313 45.56492187 66.03515625 46.37109375 C66.04417969 47.38300781 66.05320312 48.39492188 66.0625 49.4375 C66.07410156 50.44683594 66.08570313 51.45617187 66.09765625 52.49609375 C66 55 66 55 65 56 C62.15664952 56.09986975 59.34302837 56.13877881 56.5 56.125 C55.30310547 56.13080078 55.30310547 56.13080078 54.08203125 56.13671875 C48.12660767 56.12660767 48.12660767 56.12660767 47 55 C46.84213692 53.14825294 46.74892644 51.2909089 46.68359375 49.43359375 C46.64169922 48.30888672 46.59980469 47.18417969 46.55664062 46.02539062 C46.51732422 44.84138672 46.47800781 43.65738281 46.4375 42.4375 C46.39431641 41.24962891 46.35113281 40.06175781 46.30664062 38.83789062 C46.20016454 35.89205216 46.09815159 32.9461257 46 30 C45.823479 30.54003662 45.64695801 31.08007324 45.46508789 31.63647461 C44.66733505 34.07118164 43.86498121 36.50434758 43.0625 38.9375 C42.78470703 39.78763672 42.50691406 40.63777344 42.22070312 41.51367188 C41.81948242 42.72700195 41.81948242 42.72700195 41.41015625 43.96484375 C41.16402588 44.7137085 40.91789551 45.46257324 40.66430664 46.23413086 C40 48 40 48 39 49 C34.66469082 49.14393457 30.33842269 49.04212061 26 49 C24.02 43.39 22.04 37.78 20 32 C19.05912452 34.82262643 18.89348128 36.46663995 18.9375 39.37890625 C18.94523437 40.21744141 18.95296875 41.05597656 18.9609375 41.91992188 C18.97382813 42.79197266 18.98671875 43.66402344 19 44.5625 C19.02546588 46.29290678 19.04651367 48.02338594 19.0625 49.75390625 C19.07410156 50.52033447 19.08570313 51.2867627 19.09765625 52.07641602 C19 54 19 54 18 56 C12.06 56 6.12 56 0 56 C0 37.52 0 19.04 0 0 Z " fill="#000000" transform="translate(210,223) translate(55.5,28) scale(1.2) translate(-55.5,-28)"/>
<path d="" fill="#272727" transform="translate(0,0)"/>
</svg>
